<svg xmlns="http://www.w3.org/2000/svg" width="152" height="152" viewBox="0 0 152 152">
    <g id="prefix__Playlist" transform="translate(-150 -1122.001)">
        <rect id="prefix__Tile" width="152" height="152" rx="8" transform="translate(150 1122.001)" style="fill:#151a1f"/>
        <g id="prefix__noun_turntable_446801" transform="translate(195.308 1167.309)">
            <path id="prefix__Path_384" d="M60.22 87.151a30.589 30.589 0 1 1 11.948-2.41 30.47 30.47 0 0 1-11.948 2.41zm0-58.554a27.771 27.771 0 1 0 10.846 2.188A27.7 27.7 0 0 0 60.22 28.6zm0 39.382a11.519 11.519 0 1 1 11.518-11.518A11.53 11.53 0 0 1 60.22 67.979zm0-20.206a8.689 8.689 0 1 0 8.688 8.688 8.7 8.7 0 0 0-8.688-8.688zm0 10.239a1.551 1.551 0 1 1 1.55-1.551 1.553 1.553 0 0 1-1.55 1.551z" data-name="Path 384" transform="translate(-29.529 -25.77)" style="fill:#454b52"/>
        </g>
    </g>
</svg>
